<svg width="89" height="89" viewBox="0 0 89 89" fill="none" xmlns="http://www.w3.org/2000/svg">
<path d="M27.8203 0H37.3804V3.99758H31.8179V7.99517H37.3804V11.9927H27.8203V0ZM39.2902 0H48.854V3.47842H43.2915V4.17188H48.854V12.167H39.2902V8.51804H44.8527V7.82087H39.2902V0ZM50.7675 0H60.3239V3.47842H54.7614V4.17188H60.3239V12.167H50.7675V8.51804H56.33V7.82087H50.7675V0Z" fill="black"/>
<path fill-rule="evenodd" clip-rule="evenodd" d="M44.4666 88.6748L18.716 81.5251L11.125 17.167H77.875L70.2878 81.5177L44.4666 88.6748ZM26.1326 46.2997L26.8409 54.191H54.1973L53.2813 64.426L44.4778 66.8067H44.4703L35.6816 64.4334L35.1179 58.1404H27.1932L28.2983 70.5336L44.4666 75.0207L60.6609 70.5336L62.6337 48.4171L62.8266 46.2997L64.2506 30.3205H24.7123L25.4317 38.2155H55.6027L54.8833 46.2997H26.1326Z" fill="black"/>
</svg>
