<svg width="56" height="84" viewBox="0 0 56 84" fill="none" xmlns="http://www.w3.org/2000/svg">
<path d="M14 84C21.728 84 28 77.728 28 70V56H14C6.272 56 0 62.272 0 70C0 77.728 6.272 84 14 84Z" fill="#0ACF83"/>
<path d="M0 42C0 34.272 6.272 28 14 28H28V56H14C6.272 56 0 49.728 0 42Z" fill="#A259FF"/>
<path d="M0 14C0 6.272 6.272 0 14 0H28V28H14C6.272 28 0 21.728 0 14Z" fill="#F24E1E"/>
<path d="M26 0H40C47.728 0 54 6.272 54 14C54 21.728 47.728 28 40 28H26V0Z" fill="#FF7262"/>
<path d="M54 42C54 49.728 47.728 56 40 56C32.272 56 26 49.728 26 42C26 34.272 32.272 28 40 28C47.728 28 54 34.272 54 42Z" fill="#1ABCFE"/>
</svg>
