<svg width="31" height="31" viewBox="0 0 31 31" fill="none" xmlns="http://www.w3.org/2000/svg">
<path d="M15.5 1.93759C8.00188 1.93759 1.9375 8.15696 1.9375 15.8488C1.9375 21.9326 5.735 27.1057 11.0244 29.0045C11.7413 29.1788 11.625 28.6751 11.625 28.307V25.8851C7.5175 26.3888 7.34313 23.5795 7.07188 23.1145C6.51 22.1457 5.1925 21.8938 5.59938 21.4288C6.52938 20.9251 7.49813 21.5451 8.6025 23.2307C9.39688 24.4513 10.9663 24.2382 11.7606 24.0445C11.935 23.3082 12.3031 22.6688 12.8069 22.1457C8.54438 21.3707 6.76188 18.697 6.76188 15.5195C6.76188 13.9695 7.24625 12.5551 8.23438 11.412C7.61438 9.53259 8.2925 7.92446 8.38938 7.67259C10.1525 7.51759 11.9738 8.97071 12.1288 9.08696C13.1363 8.81571 14.2794 8.66071 15.5581 8.66071C16.8369 8.66071 17.98 8.81571 19.0069 9.08696C19.3556 8.81571 21.0413 7.57571 22.6881 7.71134C22.785 7.94384 23.4438 9.53259 22.8625 11.3926C23.8506 12.5357 24.335 13.9695 24.335 15.5195C24.335 18.697 22.5525 21.3707 18.2706 22.1457C18.6395 22.5165 18.9295 22.958 19.1231 23.4438C19.3169 23.9282 19.4138 24.4513 19.4138 24.9745V28.4813C19.4331 28.7526 19.4138 29.0432 19.8594 29.0432C25.2263 27.1832 29.0819 21.9713 29.0819 15.8488C29.0819 8.15696 23.0175 1.91821 15.5194 1.91821L15.5 1.93759Z" fill="#F8F8F8"/>
</svg>
