<svg width="83" height="83" viewBox="0 0 83 83" fill="none" xmlns="http://www.w3.org/2000/svg">
<g clip-path="url(#clip0_346_218)">
<path d="M0 9.07812C0 4.067 4.067 0 9.07812 0H73.9219C78.933 0 83 4.067 83 9.07812V19.4531C83 20.485 82.5901 21.4746 81.8605 22.2042C81.1308 22.9338 80.1412 23.3438 79.1094 23.3438C78.0775 23.3438 77.0879 22.9338 76.3583 22.2042C75.6287 21.4746 75.2188 20.485 75.2188 19.4531V9.07812C75.2188 8.73417 75.0821 8.40431 74.8389 8.1611C74.5957 7.91788 74.2658 7.78125 73.9219 7.78125H9.07812C8.73417 7.78125 8.40431 7.91788 8.1611 8.1611C7.91788 8.40431 7.78125 8.73417 7.78125 9.07812V73.9219C7.78125 74.6377 8.36225 75.2188 9.07812 75.2188H79.1094C80.1412 75.2188 81.1308 75.6287 81.8605 76.3583C82.5901 77.0879 83 78.0775 83 79.1094C83 80.1412 82.5901 81.1308 81.8605 81.8605C81.1308 82.5901 80.1412 83 79.1094 83H9.07812C6.67046 83 4.3614 82.0436 2.65892 80.3411C0.956442 78.6386 0 76.3295 0 73.9219L0 9.07812ZM42.7969 29.8281C43.8287 29.8281 44.8183 30.238 45.548 30.9677C46.2776 31.6973 46.6875 32.6869 46.6875 33.7188V54.4688C46.6875 59.6822 45.2557 63.5884 42.3041 66.0472C39.4872 68.3972 36.0739 68.7344 33.7188 68.7344C32.6869 68.7344 31.6973 68.3245 30.9677 67.5948C30.238 66.8652 29.8281 65.8756 29.8281 64.8438C29.8281 63.8119 30.238 62.8223 30.9677 62.0927C31.6973 61.363 32.6869 60.9531 33.7188 60.9531C35.5136 60.9531 36.6393 60.6419 37.3241 60.0713C37.8739 59.6147 38.9062 58.3334 38.9062 54.4688V33.7188C38.9062 32.6869 39.3162 31.6973 40.0458 30.9677C40.7754 30.238 41.765 29.8281 42.7969 29.8281ZM58.4943 34.1338C60.6626 31.5504 64.0708 29.8281 68.7344 29.8281C73.0659 29.8281 76.3341 31.3118 78.5387 33.6409C79.2219 34.3952 79.5824 35.3871 79.5429 36.4039C79.5034 37.4208 79.067 38.3818 78.3274 39.0807C77.5877 39.7796 76.6037 40.161 75.5862 40.1429C74.5687 40.1248 73.5988 39.7088 72.8844 38.9841C72.3138 38.3823 71.1725 37.6094 68.7344 37.6094C66.1406 37.6094 64.9994 38.4809 64.4495 39.1397C63.9011 39.808 63.5844 40.6363 63.5469 41.5C63.5469 42.0395 63.7699 43.0562 64.4495 43.8603C65.0046 44.5191 66.1354 45.3906 68.7344 45.3906C69.1286 45.3906 69.5056 45.446 69.8652 45.5566C73.3046 46.0442 75.9035 47.5798 77.6776 49.6963C79.7215 52.1344 80.4062 55.0083 80.4062 57.0625C80.4062 59.1167 79.7215 61.9906 77.6776 64.4287C75.5092 67.0121 72.1011 68.7344 67.4375 68.7344C63.1059 68.7344 59.8378 67.2508 57.6331 64.9216C56.9499 64.1673 56.5894 63.1754 56.629 62.1586C56.6685 61.1417 57.1048 60.1807 57.8445 59.4818C58.5842 58.7829 59.5682 58.4015 60.5857 58.4196C61.6032 58.4377 62.5731 58.8537 63.2875 59.5784C63.8581 60.1802 64.9994 60.9531 67.4375 60.9531C70.0312 60.9531 71.1725 60.0816 71.7224 59.4228C72.2708 58.7545 72.5875 57.9262 72.625 57.0625C72.625 56.523 72.4019 55.5063 71.7224 54.7022C71.1673 54.0434 70.0364 53.1719 67.4375 53.1719C67.0547 53.169 66.6741 53.1131 66.3066 53.0059C62.8673 52.5131 60.2684 50.9827 58.4943 48.8662C56.7647 46.7977 55.801 44.1961 55.7656 41.5C55.7656 39.4458 56.4504 36.5719 58.4943 34.1338Z" fill="black"/>
</g>
<defs>
<clipPath id="clip0_346_218">
<rect width="83" height="83" fill="white"/>
</clipPath>
</defs>
</svg>
