<svg width="86" height="86" viewBox="0 0 86 86" fill="none" xmlns="http://www.w3.org/2000/svg">
<g clip-path="url(#clip0_346_209)">
<mask id="mask0_346_209" style="mask-type:luminance" maskUnits="userSpaceOnUse" x="0" y="0" width="86" height="86">
<path d="M0 0H86V86H0V0Z" fill="white"/>
</mask>
<g mask="url(#mask0_346_209)">
<path d="M59.5907 59.3507C62.762 59.021 65.17 56.2583 65.0625 52.9437C65.0089 51.3506 64.3411 49.8399 63.1991 48.7278C62.057 47.6158 60.529 46.9886 58.935 46.9775H58.7128C55.3194 47.085 52.6928 49.9588 52.8003 53.3845C52.915 55.0435 53.5707 56.4769 54.5562 57.4695C50.8331 64.8762 45.1427 70.287 36.6037 74.8164C30.8058 77.9124 24.7858 79.016 18.7694 78.242C13.8423 77.5791 10.0117 75.3682 7.60375 71.724C4.10283 66.3131 3.77675 60.4544 6.72941 54.5992C8.80775 50.4031 12.0937 47.3071 14.172 45.7627C13.6084 43.9076 13.1336 42.0266 12.7494 40.1261C-3.12117 51.729 -1.47642 67.4168 3.33241 74.82C6.94441 80.3455 14.2759 83.7711 22.3778 83.7711C24.5896 83.7842 26.7945 83.5243 28.9425 82.9971C42.9533 80.238 53.5672 71.8386 59.5872 59.3543M78.8476 45.6552C70.5307 35.8225 58.2721 30.4081 44.2648 30.4081H42.5126C42.0126 29.4142 41.247 28.5784 40.3007 27.9932C39.3544 27.4081 38.2645 27.0967 37.1519 27.0935H36.9297C33.5399 27.2046 30.9097 30.0785 31.0208 33.5041C31.1283 36.8187 33.866 39.4668 37.1483 39.4668H37.3705C38.5265 39.4074 39.6424 39.0237 40.5905 38.3595C41.5386 37.6954 42.2804 36.7776 42.7312 35.7115H44.702C53.0189 35.7115 60.8987 38.141 68.0116 42.8925C73.4833 46.5403 77.425 51.2882 79.6108 57.0359C81.4742 61.6727 81.3667 66.202 79.3958 70.072C76.3285 75.9272 71.1864 79.1307 64.3996 79.1307C60.0243 79.1307 55.8641 77.8049 53.6747 76.8087C52.0996 78.2143 50.4564 79.5417 48.7512 80.7862C53.4561 82.9971 58.2721 84.2119 62.8695 84.2119C73.3758 84.2119 81.1445 78.3567 84.1007 72.5015C87.272 66.0945 87.0534 55.0471 78.8476 45.6552ZM23.2557 61.2284C23.3632 64.543 26.1009 67.1946 29.3832 67.1946H29.6018C32.9952 67.0871 35.6218 64.2133 35.5143 60.7876C35.4607 59.1945 34.793 57.6838 33.6509 56.5718C32.5088 55.4597 30.9808 54.8325 29.3868 54.8214H29.1647C28.9043 54.8009 28.6425 54.8376 28.3978 54.9289C23.9115 47.4182 22.0517 39.2446 22.7075 30.4045C23.1447 23.7754 25.3341 18.0313 29.1647 13.2798C32.3395 9.19479 38.467 7.20604 42.6272 7.09496C54.2265 6.87279 59.15 21.457 59.4797 27.3121C60.9023 27.6418 63.3102 28.4158 64.9514 28.9676C63.6363 11.0725 52.6964 1.79163 42.1865 1.79163C32.3395 1.79163 23.2557 8.97263 19.6437 19.5793C14.6092 33.7191 17.8915 47.3071 24.0226 58.0249C23.4743 58.7989 23.1447 60.0136 23.2557 61.2284Z" fill="black"/>
</g>
</g>
<defs>
<clipPath id="clip0_346_209">
<rect width="86" height="86" fill="white"/>
</clipPath>
</defs>
</svg>
