<svg width="87" height="87" viewBox="0 0 87 87" fill="none" xmlns="http://www.w3.org/2000/svg">
<g clip-path="url(#clip0_346_241)">
<path d="M59.4729 20.5754C59.0487 20.5754 58.766 20.6325 58.4805 20.7032V20.7467H58.524C58.7225 21.1138 59.0487 21.3992 59.3016 21.7391C59.5001 22.1224 59.6686 22.5166 59.8535 22.9L59.9106 22.8429C60.2504 22.6009 60.4217 22.2203 60.4217 21.6385C60.2803 21.4672 60.2504 21.285 60.1254 21.1273C59.984 20.8854 59.6713 20.7603 59.4729 20.5754ZM20.9156 68.4064H17.5606C17.4597 63.0663 17.1341 57.7329 16.5846 52.4202H16.5574L11.4461 68.4064H8.88237L3.8119 52.4202H3.7684C3.37439 57.7407 3.13866 63.0718 3.06152 68.4064H0.00292969C0.168634 61.7024 0.664956 55.0107 1.49009 48.3556H5.65249L10.4946 63.0831H10.5218L15.4074 48.3556H19.3713C20.2522 55.6636 20.7715 62.3472 20.9291 68.4064H20.9156ZM35.4717 53.611C34.1124 61.0304 32.299 66.4272 30.0777 69.7821C28.3232 72.374 26.4065 73.6717 24.3276 73.6753C23.7784 73.6753 23.0942 73.505 22.2749 73.1642V71.3807C22.6855 71.4378 23.1531 71.4786 23.6778 71.4786C24.6538 71.4786 25.4341 71.1958 26.0295 70.6711C26.7364 70.0186 27.0907 69.2873 27.0926 68.4771C27.0926 67.9116 26.8234 66.7779 26.2579 65.0515L22.5903 53.611H25.8909L28.5253 62.1642C29.1207 64.1189 29.3763 65.4647 29.2621 66.2423C30.7194 62.3898 31.7253 58.1703 32.2935 53.611H35.4717ZM80.1598 68.4064H70.617V48.3556H73.8306V65.9432H80.1598V68.4064ZM68.1239 68.8903L64.4427 67.0769C64.769 66.8105 65.0762 66.5087 65.3644 66.1716C66.9358 64.3446 67.7161 61.6123 67.7161 58.0154C67.7161 51.3762 65.1106 48.0584 59.8997 48.062C57.3477 48.0584 55.3558 48.8985 53.9239 50.5823C52.3661 52.4229 51.5722 55.1416 51.5722 58.7249C51.5722 62.2512 52.2655 64.8285 53.6547 66.4843C54.9298 67.9578 56.8411 68.7082 59.4049 68.7082C60.3565 68.71 61.2301 68.5922 62.0258 68.3548L66.8271 71.1578L68.143 68.8931L68.1239 68.8903ZM56.1886 64.3854C55.3676 63.0831 54.9706 60.9869 54.9706 58.0969C54.9688 53.0455 56.5031 50.5207 59.5735 50.5225C61.1748 50.5225 62.3629 51.1315 63.1133 52.3359C63.9207 53.6518 64.3313 55.7207 64.3313 58.5808C64.3313 63.6649 62.787 66.2287 59.7284 66.2287C58.1135 66.2287 56.939 65.6197 56.175 64.4153L56.1886 64.3854ZM50.1829 62.8574C50.1829 64.5567 49.5603 65.9595 48.2988 67.0334C47.0536 68.1237 45.3952 68.6756 43.2854 68.6756C41.3171 68.6756 39.433 68.053 37.5788 66.8051L38.4433 65.0787C40.0284 65.8725 41.4584 66.2695 42.7634 66.2695C43.9706 66.2677 44.9149 66.003 45.5964 65.4756C46.2761 64.9373 46.6866 64.1869 46.6866 63.2381C46.6866 62.0473 45.8519 61.0277 44.3349 60.1795C42.932 59.4019 40.1154 57.8006 40.1154 57.8006C38.5847 56.6832 37.8343 55.4923 37.8343 53.524C37.8343 51.8982 38.4007 50.5904 39.5336 49.6008C40.6809 48.5813 42.1381 48.0865 43.9515 48.0865C45.7557 48.0708 47.5243 48.5881 49.0356 49.5736L48.258 51.3C47.0438 50.7634 45.733 50.4795 44.4056 50.4654C43.3724 50.469 42.5795 50.7191 42.0266 51.2158C41.1974 51.9607 41.1349 52.3332 41.1349 53.1134C41.1349 54.3043 41.9859 55.3238 43.541 56.1992C44.9711 56.9768 47.8448 58.6216 47.8448 58.6216C49.4162 59.7254 50.1965 60.9162 50.1965 62.8547L50.1829 62.8574ZM84.1836 41.6322C82.2424 41.5887 80.7417 41.7871 79.4829 42.3254C79.1294 42.4668 78.5476 42.4668 78.4905 42.9208C78.689 43.1193 78.7162 43.432 78.8875 43.6984C79.1838 44.1796 79.6813 44.8321 80.149 45.172C80.6601 45.5689 81.1685 45.9658 81.6932 46.3057C82.6421 46.8875 83.7051 47.2273 84.6376 47.8064C85.1623 48.1463 85.7007 48.584 86.2226 48.9402C86.4918 49.125 86.6604 49.4513 87.0002 49.5628V49.4921C86.8289 49.28 86.7881 48.9673 86.6169 48.7145C86.3749 48.4725 86.1357 48.2605 85.8937 48.0212C85.185 47.0795 84.3349 46.2532 83.3734 45.5716C82.5958 45.0469 80.8966 44.3101 80.584 43.4184L80.5405 43.3613C81.0652 43.3178 81.6878 43.1193 82.1962 42.9779C83.0172 42.7659 83.7812 42.8067 84.6322 42.5946C85.0227 42.4936 85.4098 42.3803 85.7931 42.2548V42.0427C85.3554 41.605 85.0291 41.0096 84.5751 40.599C83.3215 39.5073 81.9864 38.513 80.5812 37.6247C79.8173 37.1299 78.8548 36.8173 78.0474 36.4067C77.7646 36.2653 77.2698 36.1947 77.1121 35.9527C76.6744 35.4144 76.4188 34.7211 76.1062 34.0822C75.3955 32.6997 74.7344 31.2923 74.1242 29.8627C73.6865 28.9138 73.4309 27.9786 72.8926 27.1004C70.3995 22.9788 67.6808 20.4884 63.5184 18.0388C62.6266 17.5277 61.55 17.3157 60.4163 17.0465C59.8073 17.0193 59.2119 16.9758 58.6029 16.9486C58.2059 16.7773 57.8253 16.326 57.4855 16.0977C56.0989 15.2195 52.5292 13.3354 51.5232 15.8285C50.8707 17.4135 52.4857 18.9578 53.0539 19.7517C53.4644 20.3172 53.9891 20.9425 54.2855 21.5651C54.4568 21.9892 54.4976 22.4296 54.6688 22.8673C55.0522 23.9304 55.4192 25.1185 55.9303 26.1108C56.1995 26.6219 56.4822 27.1575 56.8221 27.6116C57.0206 27.8807 57.3604 27.9949 57.4311 28.4326C57.0912 28.9274 57.0641 29.6506 56.8792 30.246C56.001 32.992 56.3409 36.3768 57.5725 38.4023C57.9694 39.0113 58.8883 40.3435 60.1227 39.8323C61.2129 39.3946 60.9736 38.0189 61.2836 36.8009C61.3542 36.5046 61.3107 36.3197 61.4548 36.1213V36.1783C61.8083 36.858 62.1481 37.5105 62.4608 38.1902C63.1976 39.381 64.5134 40.6126 65.6036 41.4337C66.1855 41.8714 66.6368 42.6245 67.36 42.8909V42.8203H67.3029C67.1479 42.6082 66.9494 42.5076 66.751 42.339C66.2918 41.8842 65.8657 41.3972 65.4759 40.8818C64.4699 39.5224 63.5646 38.0217 62.7707 36.4774C62.3886 35.7142 62.0394 34.935 61.724 34.142C61.5826 33.8593 61.5826 33.4188 61.3407 33.2774C60.9736 33.8022 60.4353 34.2535 60.1797 34.9196C59.7121 35.9527 59.6686 37.2414 59.4865 38.5736C59.4022 38.6008 59.443 38.5736 59.4022 38.6307C58.6246 38.4322 58.3555 37.6383 58.07 36.9586C57.3332 35.2322 57.219 32.47 57.8443 30.488C58.0156 29.9769 58.7361 28.3783 58.4533 27.897C58.2984 27.4294 57.8172 27.1603 57.5616 26.7932C57.2353 26.3392 56.9091 25.7601 56.6834 25.249C56.1016 23.8896 55.8189 22.3888 55.1827 21.0295C54.8999 20.4069 54.3888 19.7544 53.9783 19.1753C53.5107 18.5228 53.0022 18.0579 52.6461 17.2912C52.5183 17.022 52.3497 16.5843 52.5482 16.2988C52.5917 16.1004 52.6896 16.0297 52.8881 15.9726C53.2007 15.7034 54.1061 16.0433 54.4187 16.1983C55.3105 16.5517 56.0608 16.8915 56.8112 17.4027C57.1511 17.6446 57.5181 18.0959 57.9585 18.2237H58.4697C59.2472 18.395 60.1118 18.2672 60.835 18.4929C62.1236 18.9034 63.2846 19.4988 64.3313 20.1486C67.5325 22.2031 70.1357 25.0651 71.8785 28.4462C72.1749 28.9981 72.3027 29.5093 72.5718 30.0883C73.0666 31.2928 73.7055 32.4944 74.2139 33.6418C74.7223 34.7891 75.2063 35.95 75.9403 36.8988C76.3074 37.4099 77.7537 37.6764 78.4171 37.9319C78.8983 38.1576 79.6487 38.3561 80.0728 38.6116C80.9075 39.1228 81.7286 39.7018 82.5088 40.2673C82.9058 40.5365 84.1102 41.1455 84.1809 41.6267L84.1836 41.6322Z" fill="black"/>
</g>
<defs>
<clipPath id="clip0_346_241">
<rect width="87" height="87" fill="white"/>
</clipPath>
</defs>
</svg>
