<svg width="90" height="90" viewBox="0 0 90 90" fill="none" xmlns="http://www.w3.org/2000/svg">
<path d="M30.4761 23.325C34.4136 20.1637 39.3711 18.75 44.9998 18.75C50.2836 18.75 54.3186 19.9875 57.5923 21.8775C60.3673 23.4713 62.6698 25.6537 64.8973 27.915C67.3198 30.3787 68.6323 31.575 70.286 31.9875C72.0598 32.43 73.5598 32.295 74.9323 31.71C76.3573 31.0988 77.8986 29.8837 79.4998 27.75L86.1373 30.9113C84.7498 36.4762 82.2111 41.0363 78.2811 44.1788C74.3398 47.3288 69.3861 48.75 63.7498 48.75C58.4698 48.75 54.4348 47.5088 51.1611 45.6225C48.0336 43.8225 45.7498 41.505 43.9611 39.6863C41.4748 37.1663 40.1436 35.9325 38.4673 35.5125C36.6936 35.07 35.1936 35.205 33.8211 35.79C32.3961 36.4012 30.8511 37.6163 29.2498 39.75L22.6123 36.5887C24.0036 31.0238 26.5423 26.4637 30.4723 23.3212M44.9998 26.25C41.8948 26.25 39.3936 26.7975 37.3761 27.78C42.3261 28.0875 45.5548 31.1362 48.8398 34.2337C50.7298 36.0187 52.6386 37.8187 54.9036 39.1237C57.0036 40.3312 59.7411 41.25 63.7536 41.25C66.8586 41.25 69.3598 40.7025 71.3773 39.72C66.4273 39.4088 63.1986 36.3638 59.9173 33.2663C58.0236 31.4813 56.1186 29.6812 53.8498 28.3762C51.7536 27.1687 49.0123 26.25 44.9998 26.25ZM11.7223 45.825C15.6636 42.6638 20.6211 41.25 26.2498 41.25C31.5336 41.25 35.5686 42.4875 38.8423 44.3775C41.6173 45.9712 43.9198 48.1538 46.1473 50.415C48.5698 52.8787 49.8823 54.075 51.5361 54.4875C53.3098 54.93 54.8098 54.7988 56.1823 54.21C57.6073 53.5988 59.1486 52.3837 60.7498 50.25L67.3873 53.4075C65.9998 58.9762 63.4611 63.5325 59.5311 66.6787C55.5898 69.8288 50.6361 71.25 44.9998 71.25C39.7198 71.25 35.6848 70.0088 32.4111 68.1225C29.2836 66.3225 26.9998 64.005 25.2111 62.1862C22.7248 59.6663 21.3936 58.4325 19.7173 58.0125C17.9436 57.57 16.4436 57.7012 15.0711 58.29C13.6461 58.9012 12.1011 60.1163 10.4998 62.25L3.8623 59.0887C5.25355 53.5238 7.7923 48.9637 11.7223 45.8212M26.2498 48.75C23.1448 48.75 20.6436 49.2975 18.6261 50.28C23.5761 50.5912 26.8048 53.6362 30.0898 56.7337C31.9798 58.5187 33.8886 60.3188 36.1536 61.6238C38.2536 62.8313 40.9911 63.75 45.0036 63.75C48.1086 63.75 50.6098 63.2025 52.6273 62.22C47.6773 61.9125 44.4486 58.8638 41.1673 55.7663C39.2736 53.9813 37.3648 52.1813 35.0998 50.8763C33.0036 49.6688 30.2623 48.75 26.2498 48.75Z" fill="black"/>
</svg>
