<svg width="89" height="89" viewBox="0 0 89 89" fill="none" xmlns="http://www.w3.org/2000/svg">
<path fill-rule="evenodd" clip-rule="evenodd" d="M18.486 7.41663C13.4056 7.41663 9.64908 11.8629 9.81967 16.68C9.97913 21.3155 9.77146 27.3118 8.26217 32.2031C6.74175 37.1055 4.183 40.2131 0 40.6136V45.1193C4.183 45.516 6.74546 48.6236 8.25846 53.5298C9.77146 58.421 9.97913 64.4174 9.81596 69.0491C9.64908 73.87 13.4056 78.3163 18.486 78.3163H70.5214C75.6018 78.3163 79.3583 73.87 79.1878 69.0491C79.0283 64.4174 79.236 58.421 80.7452 53.5298C82.262 48.6236 84.817 45.5198 89 45.1193V40.6136C84.817 40.2131 82.262 37.1055 80.7452 32.2031C79.236 27.3081 79.0283 21.3118 79.1878 16.68C79.3583 11.8592 75.5981 7.41663 70.5214 7.41663H18.486ZM60.3346 51.06C60.3346 57.6979 55.384 61.7215 47.17 61.7215H33.1859C32.7856 61.7215 32.4017 61.5624 32.1186 61.2794C31.8356 60.9963 31.6766 60.6125 31.6766 60.2122V25.517C31.6776 25.1174 31.837 24.7344 32.1199 24.4522C32.4029 24.1699 32.7862 24.0114 33.1859 24.0114H47.0921C53.9414 24.0114 58.4396 27.7198 58.4396 33.4195C58.4396 37.417 55.4136 40.9956 51.5607 41.626V41.8337C56.808 42.4085 60.3346 46.0426 60.3346 51.06ZM45.6496 28.7915H37.6767V40.0574H44.3925C49.5841 40.0574 52.447 37.9659 52.447 34.2279C52.447 30.7272 49.9846 28.7915 45.6496 28.7915ZM37.6767 44.5259V56.9377H45.9463C51.3493 56.9377 54.2158 54.7683 54.2158 50.6929C54.2158 46.6137 51.2714 44.5259 45.5977 44.5259H37.6767Z" fill="black"/>
</svg>
