<svg width="89" height="89" viewBox="0 0 89 89" fill="none" xmlns="http://www.w3.org/2000/svg">
<g clip-path="url(#clip0_346_222)">
<mask id="mask0_346_222" style="mask-type:luminance" maskUnits="userSpaceOnUse" x="0" y="0" width="89" height="89">
<path d="M0 0H89V89H0V0Z" fill="white"/>
</mask>
<g mask="url(#mask0_346_222)">
<path d="M18.8379 0H22.8503V3.96421H26.5216V0H30.534V12.0002H26.5216V7.98404H22.8503V12.0002H18.8416L18.8379 0ZM35.8072 3.97904H32.2769V0H43.3537V3.97904H39.8196V12.0002H35.8072V3.97904ZM45.1114 0H49.2944L51.868 4.21637L54.4379 0H58.6209V12.0002H54.627V6.052L51.868 10.3203H51.7976L49.0348 6.05571V12.0002H45.1114V0ZM60.616 0H64.6321V8.03596H70.2688V12.0039H60.616V0Z" fill="black"/>
<path fill-rule="evenodd" clip-rule="evenodd" d="M18.7122 81.8503L11.125 17.4922H77.875L70.284 81.8429L44.4629 89L18.7122 81.8503ZM34.0536 46.6211L33.3342 38.537H63.5386L64.2432 30.6456H24.7123L26.8409 54.5162H54.1973L53.2813 64.7512L44.4778 67.1319H44.4703L35.6816 64.7586L35.1179 58.4656H27.1895L28.2946 70.8588L44.4629 75.3459L60.6572 70.8588L62.63 48.7423L62.8229 46.6249L34.0536 46.6211Z" fill="black"/>
</g>
</g>
<defs>
<clipPath id="clip0_346_222">
<rect width="89" height="89" fill="white"/>
</clipPath>
</defs>
</svg>
