<svg width="92" height="92" viewBox="0 0 92 92" fill="none" xmlns="http://www.w3.org/2000/svg">
<path d="M38.5213 48.7435C29.0165 51.3985 44.3029 56.8833 56.4038 51.699C54.4222 50.9292 53.0005 50.0394 53.0005 50.0394C47.6041 51.0593 45.1014 51.1398 40.2032 50.5806C36.1602 50.1177 38.5213 48.7435 38.5213 48.7435ZM54.9548 43.5634C47.8032 44.9398 43.6719 44.896 38.4386 44.3562C34.3928 43.9379 37.0414 41.9764 37.0414 41.9764C26.5742 45.4509 42.8676 49.3925 57.4963 45.1138C55.9424 44.5668 54.9548 43.5634 54.9548 43.5634ZM60.5603 13.5693C60.5603 13.5693 39.401 18.8528 49.5059 30.4973C52.4895 33.9315 48.7239 37.0192 48.7239 37.0192C48.7239 37.0192 56.2945 33.1114 52.8179 28.216C49.5706 23.6526 47.0809 21.3864 60.5603 13.5693ZM26.9386 58.438C51.609 62.4364 71.9087 56.6368 65.5111 53.7496C65.5111 53.7496 67.2584 55.1907 63.5855 56.3047C56.6029 58.42 34.5164 59.0582 28.3819 56.3888C26.1782 55.4293 30.3132 54.0982 31.6134 53.8186C32.9697 53.5246 33.7445 53.5785 33.7445 53.5785C31.2921 51.8506 17.8924 56.9696 26.9386 58.438ZM57.0313 38.7298C58.2172 37.9205 59.8559 37.2176 59.8559 37.2176C59.8559 37.2176 55.1898 38.0521 50.5402 38.4423C44.8492 38.9196 38.7441 39.0137 35.6794 38.6041C28.4236 37.6337 39.6569 34.965 39.6569 34.965C39.6569 34.965 35.2941 34.6696 29.9301 37.2643C23.5857 40.3326 45.6218 41.7306 57.0313 38.7298ZM59.8092 46.2278C59.756 46.3716 59.5778 46.5333 59.5778 46.5333C75.064 42.4623 69.37 32.1835 61.9655 34.7853C61.3164 35.0146 60.975 35.5494 60.975 35.5494C60.975 35.5494 61.3854 35.3841 62.3011 35.1929C66.0437 34.4137 71.407 40.204 59.8092 46.2278ZM46.7229 34.8536C44.438 29.6887 36.6914 25.1713 46.7265 17.2457C59.24 7.36862 52.8187 0.942993 52.8187 0.942993C55.409 11.1471 43.6826 14.2298 39.4499 20.585C36.5677 24.9147 40.8651 29.5686 46.7229 34.8536ZM60.2283 60.4778C50.7271 62.266 39.0079 62.0583 32.0597 60.9112C32.0597 60.9112 33.4829 62.0899 40.7976 62.56C51.9267 63.2716 69.0222 62.164 69.4268 56.8977C69.4268 56.897 68.6491 58.8929 60.2283 60.4778ZM36.7503 71.5408C34.6753 71.5408 32.9043 72.054 31.4258 72.7066L31.8743 74.4984C33.0379 74.0708 34.4747 73.674 35.9525 73.674C38.0009 73.674 38.8124 74.4984 38.8124 76.2048V77.625H37.9499C32.9754 77.625 30.7308 79.483 30.7308 82.386C30.7308 84.8865 32.2107 86.2723 34.9951 86.2723C36.7848 86.2723 38.1224 85.6649 39.3709 84.5832L39.598 86.25H41.6874V75.8339C41.6874 73.2471 40.3045 71.5408 36.7503 71.5408ZM38.8124 82.6828C38.0936 83.5928 36.733 84.1045 35.7369 84.1045C34.3188 84.1045 33.5892 83.1191 33.5892 81.7542C33.5892 80.2765 34.4532 79.0625 37.7537 79.0625H38.8124V82.6828ZM50.0328 83.1457L49.4326 80.5525L46.733 71.875H43.5777L47.9269 86.25H51.5393C53.6122 81.2187 55.0921 76.1875 55.9136 71.875H52.8438C52.3615 75.4687 51.3948 79.3672 50.0328 83.1457ZM63.2607 71.5408C61.1842 71.5408 59.3715 72.054 57.8938 72.7066L58.3221 74.4984C59.4872 74.0708 60.9973 73.674 62.4751 73.674C64.5206 73.674 65.4061 74.4984 65.4061 76.2048V77.625H64.3798C59.4039 77.625 57.1599 79.483 57.1599 82.386C57.1599 84.8865 58.6377 86.2723 61.4221 86.2723C63.2132 86.2723 64.5479 85.6649 65.8 84.5832L66.0286 86.25H68.2811V75.8339C68.2811 73.2471 66.812 71.5408 63.2607 71.5408ZM62.2465 84.0916C60.827 84.0916 60.0572 83.1119 60.0572 81.7477C60.0572 80.2707 60.883 79.0625 64.1799 79.0625H65.4061V82.6562H65.358C64.305 83.375 63.2398 84.0916 62.2465 84.0916ZM25.8749 82.9243C25.8749 85.2754 25.555 86.2579 25.1712 87.0219C24.7292 87.8794 23.6956 88.8008 22.583 89.3715L23.9731 91.057C25.4336 90.5187 26.8071 89.5634 27.6329 88.3567C28.4595 87.1182 28.7499 85.8475 28.7499 82.7022V66.8437H25.8749V82.9243Z" fill="black"/>
</svg>
