<svg width="82" height="82" viewBox="0 0 82 82" fill="none" xmlns="http://www.w3.org/2000/svg">
<mask id="mask0_346_192" style="mask-type:luminance" maskUnits="userSpaceOnUse" x="0" y="0" width="82" height="82">
<path d="M41 82C63.6437 82 82 63.6437 82 41C82 18.3563 63.6437 0 41 0C18.3563 0 0 18.3563 0 41C0 63.6437 18.3563 82 41 82Z" fill="white"/>
</mask>
<g mask="url(#mask0_346_192)">
<path d="M41 82C63.6437 82 82 63.6437 82 41C82 18.3563 63.6437 0 41 0C18.3563 0 0 18.3563 0 41C0 63.6437 18.3563 82 41 82Z" fill="black"/>
<path d="M68.108 71.7593L31.4966 24.6003H24.5986V57.3866H30.117V31.6088L63.7761 75.0963C65.2927 74.0816 66.7399 72.9668 68.108 71.7593Z" fill="url(#paint0_linear_346_192)"/>
<path d="M52.3916 24.6003H57.8584V57.4003H52.3916V24.6003Z" fill="url(#paint1_linear_346_192)"/>
</g>
<defs>
<linearGradient id="paint0_linear_346_192" x1="2445.15" y1="2871.82" x2="3898.11" y2="4672.69" gradientUnits="userSpaceOnUse">
<stop stop-color="white"/>
<stop offset="1" stop-color="white" stop-opacity="0"/>
</linearGradient>
<linearGradient id="paint1_linear_346_192" x1="325.73" y1="24.6003" x2="316.481" y2="2433.33" gradientUnits="userSpaceOnUse">
<stop stop-color="white"/>
<stop offset="1" stop-color="white" stop-opacity="0"/>
</linearGradient>
</defs>
</svg>
