<svg width="35" height="35" viewBox="0 0 35 35" fill="none" xmlns="http://www.w3.org/2000/svg">
<path fill-rule="evenodd" clip-rule="evenodd" d="M8.36083 2.9794C10.1356 1.21482 13.0581 1.52836 14.5442 3.51461L16.3846 5.97044C17.595 7.58628 17.4871 9.84378 16.0506 11.2715L15.7035 11.6186C15.6642 11.7643 15.6602 11.9173 15.6919 12.0648C15.7837 12.6598 16.281 13.9198 18.3635 15.9907C20.446 18.0615 21.7148 18.5573 22.3185 18.6507C22.4707 18.6812 22.6278 18.6768 22.7779 18.6375L23.3729 18.0454C24.6504 16.7767 26.6104 16.539 28.1912 17.3979L30.9767 18.9146C33.364 20.2096 33.9662 23.4529 32.0121 25.3969L29.9398 27.4561C29.2865 28.105 28.4085 28.6461 27.3381 28.7467C24.6985 28.9932 18.5487 28.6782 12.084 22.2513C6.05083 16.2517 4.89291 11.0192 4.74562 8.44086C4.6727 7.13711 5.28812 6.03461 6.0727 5.25586L8.36083 2.9794ZM12.7942 4.82565C12.0548 3.83836 10.6781 3.75961 9.90229 4.53107L7.6127 6.80607C7.13145 7.2844 6.90104 7.81232 6.9302 8.3169C7.04687 10.3659 7.9802 15.0865 13.6269 20.7011C19.5506 26.5898 25.0208 26.7663 27.1354 26.5679C27.5671 26.5286 27.9958 26.304 28.3969 25.9059L30.4677 23.8452C31.3106 23.0082 31.1254 21.4827 29.9325 20.8352L27.1471 19.32C26.3771 18.9029 25.4758 19.04 24.9158 19.5971L24.2523 20.2577L23.4794 19.4819C24.2523 20.2577 24.2508 20.2592 24.2494 20.2592L24.2479 20.2621L24.2435 20.2665L24.2333 20.2752L24.2115 20.2957C24.1499 20.3528 24.0836 20.4045 24.0131 20.4502C23.8965 20.5275 23.7419 20.6136 23.5479 20.685C23.1542 20.8323 22.6321 20.9111 21.9875 20.8119C20.7231 20.6179 19.0475 19.7561 16.8206 17.5423C14.5952 15.3286 13.726 13.6632 13.5306 12.4002C13.43 11.7557 13.5102 11.2336 13.659 10.8398C13.7408 10.6183 13.858 10.4114 14.006 10.2273L14.0527 10.1763L14.0731 10.1544L14.0819 10.1457L14.0862 10.1413L14.0892 10.1384L14.5092 9.72128C15.1333 9.09857 15.2208 8.06753 14.6331 7.28148L12.7942 4.82565Z" fill="#F8F8F8"/>
</svg>
