<svg width="95" height="90" viewBox="0 0 95 90" fill="none" xmlns="http://www.w3.org/2000/svg">
<path d="M31.6667 48.75V67.5H23.75V22.5H37.6042C39.4235 22.5 41.2251 22.8395 42.9059 23.4991C44.5868 24.1587 46.1141 25.1255 47.4005 26.3442C48.687 27.563 49.7075 29.0099 50.4037 30.6023C51.1 32.1947 51.4583 33.9014 51.4583 35.625C51.4583 37.3486 51.1 39.0553 50.4037 40.6477C49.7075 42.2401 48.687 43.687 47.4005 44.9058C46.1141 46.1245 44.5868 47.0913 42.9059 47.7509C41.2251 48.4105 39.4235 48.75 37.6042 48.75H31.6667ZM31.6667 30V41.25H37.6042C39.1789 41.25 40.6891 40.6574 41.8026 39.6025C42.9161 38.5476 43.5417 37.1168 43.5417 35.625C43.5417 34.1332 42.9161 32.7024 41.8026 31.6475C40.6891 30.5926 39.1789 30 37.6042 30H31.6667ZM53.4375 46.6987C53.4375 44.2591 54.4605 41.9193 56.2814 40.1943C58.1024 38.4692 60.5721 37.5 63.1473 37.5H71.25V45H63.1473C62.7211 44.9996 62.3086 45.143 61.9839 45.4045C61.6592 45.666 61.4434 46.0286 61.3753 46.4272C61.3071 46.8258 61.3911 47.2343 61.6121 47.5796C61.8331 47.9248 62.1767 48.1842 62.5813 48.3113L66.591 49.575C68.7781 50.266 70.6342 51.6717 71.8274 53.5405C73.0205 55.4094 73.4729 57.6194 73.1034 59.7753C72.734 61.9312 71.5669 63.8922 69.811 65.3075C68.055 66.7227 65.8248 67.4999 63.5194 67.5H53.4375V60H63.5194C63.9456 60.0004 64.358 59.857 64.6828 59.5955C65.0075 59.334 65.2232 58.9714 65.2914 58.5728C65.3595 58.1742 65.2756 57.7657 65.0546 57.4204C64.8336 57.0752 64.49 56.8158 64.0854 56.6887L60.0756 55.425C58.1416 54.8158 56.4593 53.6448 55.2677 52.0784C54.0761 50.5119 53.4357 48.6296 53.4375 46.6987Z" fill="black"/>
<path d="M87.0837 7.5H7.91699V82.5H87.0837V7.5ZM15.8337 75V15H79.167V75H15.8337Z" fill="black"/>
</svg>
