<svg width="86" height="86" viewBox="0 0 86 86" fill="none" xmlns="http://www.w3.org/2000/svg">
<path fill-rule="evenodd" clip-rule="evenodd" d="M30.4727 10.5321C28.1793 9.86702 26.488 10.0448 25.2553 10.7156C24.0169 11.3806 22.9391 12.705 22.2396 14.9869C21.5401 17.286 21.3051 20.3533 21.6433 24.057C21.7007 24.6571 21.7714 25.2706 21.8555 25.8974C25.0193 25.1084 28.2283 24.513 31.4645 24.1144C33.6709 20.988 36.1148 18.0361 38.7745 15.285L38.3961 14.9812C35.4836 12.6764 32.7775 11.1972 30.4727 10.5321ZM43 11.3348C42.656 11.0443 42.3082 10.7614 41.9565 10.4862C38.6771 7.89476 35.3173 5.96262 32.0723 5.02236C28.8043 4.07636 25.4617 4.07636 22.5205 5.67596C19.5793 7.27556 17.7447 10.0734 16.7585 13.3242C15.7724 16.5578 15.5545 20.4221 15.9329 24.5902C16.0208 25.5649 16.1451 26.5644 16.3056 27.5888C15.3271 27.9328 14.3907 28.2997 13.4963 28.6896C9.6492 30.335 6.35253 32.3704 3.97893 34.7784C1.59387 37.1921 0 40.1333 0 43.4816C0 46.8298 1.59387 49.7653 3.97893 52.1905C6.35253 54.5985 9.6492 56.6281 13.4963 58.2793C14.3945 58.6615 15.3309 59.0285 16.3056 59.3801C16.1521 60.3758 16.0279 61.3757 15.9329 62.3786C15.5545 66.541 15.7724 70.4053 16.7585 73.6446C17.7447 76.8954 19.5793 79.699 22.5205 81.2872C25.4617 82.881 28.81 82.8868 32.0723 81.9408C35.3173 80.9948 38.6771 79.0741 41.9565 76.4769L43 75.6226C43.344 75.9131 43.6918 76.1979 44.0435 76.4769C47.3229 79.0684 50.6827 80.9948 53.9277 81.9408C57.19 82.8868 60.5383 82.881 63.4795 81.2872C66.4207 79.699 68.2553 76.8954 69.2415 73.6446C70.2276 70.411 70.4455 66.541 70.0671 62.3786C69.9721 61.3757 69.8479 60.3758 69.6944 59.3801C70.6691 59.0361 71.6055 58.6692 72.5037 58.2793C76.3508 56.6281 79.6475 54.5928 82.0211 52.1905C84.4061 49.771 86 46.8241 86 43.4758C86 40.139 84.4061 37.1921 82.0211 34.7726C79.6475 32.3646 76.3508 30.3293 72.5037 28.6838C71.5782 28.2896 70.6414 27.9225 69.6944 27.583C69.8473 26.5587 69.9715 25.5592 70.0671 24.5845C70.4455 20.4164 70.2276 16.5578 69.2415 13.3185C68.2553 10.0677 66.4207 7.26409 63.4795 5.67022C60.5383 4.07636 57.19 4.07636 53.9277 5.02236C50.6827 5.96262 47.3229 7.88902 44.0435 10.4862L43 11.3348ZM43 19.1608C41.7081 20.4832 40.4238 21.9261 39.1472 23.4894C41.7147 23.3879 44.2853 23.3879 46.8528 23.4894C45.6355 21.9883 44.3499 20.5438 43 19.1608ZM54.5355 24.1144C52.1848 20.8234 49.7195 17.8536 47.2255 15.285L47.5981 14.9812C50.5221 12.6764 53.2168 11.1972 55.5273 10.5321C57.8149 9.86702 59.512 10.0448 60.7447 10.7156C61.9831 11.3806 63.0609 12.705 63.7547 14.9869C64.4541 17.286 64.6949 20.3533 64.3567 24.057C64.2993 24.6609 64.2286 25.2725 64.1445 25.8917C60.9806 25.1046 57.7716 24.5111 54.5355 24.1144ZM51.3076 29.5266C45.7812 29.0111 40.2188 29.0111 34.6924 29.5266C31.7393 33.9424 29.1856 38.6125 27.0613 43.4816C29.1867 48.3471 31.7385 53.015 34.6867 57.4308C40.2169 57.947 45.7831 57.947 51.3133 57.4308C54.2641 53.0166 56.816 48.3484 58.9387 43.4816C56.8136 38.6141 54.2561 33.9442 51.3076 29.5266ZM61.7709 36.0512C60.8227 34.1923 59.815 32.3643 58.7495 30.5701C60.2401 30.8568 61.6773 31.1778 63.0609 31.5333C62.7016 33.0048 62.2716 34.5108 61.7709 36.0512ZM61.7709 50.9062C60.8228 52.7671 59.8151 54.5969 58.7495 56.393C60.2401 56.1064 61.6773 55.7834 63.0609 55.4241C62.6825 53.9039 62.2522 52.3971 61.7709 50.9062ZM68.5363 53.6984C67.6423 50.2212 66.516 46.8079 65.1651 43.4816C66.5755 39.9842 67.7049 36.55 68.5363 33.2648C69.1249 33.4864 69.6982 33.7158 70.2563 33.9528C73.6733 35.4205 76.2591 37.0889 77.9447 38.7974C79.6188 40.4945 80.2724 42.0769 80.2724 43.4816C80.2724 44.8862 79.6188 46.4629 77.9447 48.16C76.2591 49.8742 73.6733 51.5426 70.2563 53.0104C69.6876 53.2513 69.1142 53.4806 68.5363 53.6984ZM64.1503 61.0657C60.9864 61.8547 57.7775 62.4501 54.5412 62.8488C52.1905 66.1397 49.7252 69.1038 47.2312 71.6781L47.6096 71.9762C50.5221 74.2868 53.2283 75.7602 55.5331 76.431C57.8207 77.0961 59.5177 76.9184 60.7504 76.2476C61.9831 75.5768 63.0667 74.2524 63.7604 71.9705C64.4656 69.6772 64.7007 66.6041 64.3624 62.9004C64.3058 62.2873 64.235 61.6755 64.1503 61.0657ZM43 67.8024C44.2919 66.4799 45.5762 65.037 46.8528 63.4737C44.2853 63.5753 41.7147 63.5753 39.1472 63.4737C40.4238 65.0332 41.7081 66.4761 43 67.8024ZM27.2563 56.393C26.1906 54.5969 25.1829 52.7671 24.2348 50.9062C23.7379 52.4504 23.3079 53.9564 22.9448 55.4241C24.3246 55.7834 25.7618 56.1064 27.2563 56.393ZM21.8555 61.0657C25.0193 61.8547 28.2283 62.4501 31.4645 62.8488C33.8152 66.1397 36.2748 69.1038 38.7745 71.6781L38.3961 71.9762C35.4836 74.2868 32.7775 75.7602 30.4727 76.431C28.1793 77.0961 26.488 76.9184 25.2496 76.2476C24.0112 75.5768 22.9391 74.2524 22.2396 71.9705C21.5401 69.6772 21.3051 66.6041 21.6433 62.9004C21.7017 62.2874 21.7724 61.6758 21.8555 61.0657ZM17.4695 53.6984C18.3008 50.4074 19.4245 46.9789 20.8407 43.4816C19.4897 40.1552 18.3634 36.7419 17.4695 33.2648C16.877 33.4864 16.3037 33.7158 15.7495 33.9528C12.3324 35.4205 9.74667 37.0889 8.06107 38.7974C6.38693 40.4945 5.73333 42.0769 5.73333 43.4816C5.73333 44.8862 6.38693 46.4629 8.06107 48.16C9.74667 49.8742 12.3324 51.5426 15.7495 53.0104C16.3075 53.2435 16.8808 53.4729 17.4695 53.6984ZM22.9448 31.539C23.3041 33.0068 23.7341 34.5108 24.2348 36.0512C25.183 34.1923 26.1907 32.3643 27.2563 30.5701C25.7656 30.8568 24.3284 31.1797 22.9448 31.539ZM34.4 43.4816C34.4 41.2007 35.3061 39.0133 36.9189 37.4004C38.5317 35.7876 40.7191 34.8816 43 34.8816C45.2809 34.8816 47.4683 35.7876 49.0811 37.4004C50.6939 39.0133 51.6 41.2007 51.6 43.4816C51.6 45.7624 50.6939 47.9499 49.0811 49.5627C47.4683 51.1755 45.2809 52.0816 43 52.0816C40.7191 52.0816 38.5317 51.1755 36.9189 49.5627C35.3061 47.9499 34.4 45.7624 34.4 43.4816ZM43 40.6149C42.2397 40.6149 41.5106 40.9169 40.973 41.4545C40.4354 41.9921 40.1333 42.7213 40.1333 43.4816C40.1333 44.2418 40.4354 44.971 40.973 45.5086C41.5106 46.0462 42.2397 46.3482 43 46.3482C43.7603 46.3482 44.4894 46.0462 45.027 45.5086C45.5646 44.971 45.8667 44.2418 45.8667 43.4816C45.8667 42.7213 45.5646 41.9921 45.027 41.4545C44.4894 40.9169 43.7603 40.6149 43 40.6149Z" fill="black"/>
</svg>
